# This file uses centimeters as units for non-parametric coordinates.

mtllib MushroomOBJ.mtl
g default
v -0.500000 0.148783 0.500000
v 0.500000 0.148783 0.500000
v -0.500000 1.659764 0.500000
v 0.500000 1.659764 0.500000
v -0.500000 1.659764 -0.500000
v 0.500000 1.659764 -0.500000
v -0.500000 0.148783 -0.500000
v 0.500000 0.148783 -0.500000
v -0.500000 3.635630 0.500000
v 0.500000 3.635630 0.500000
v 0.500000 3.635630 -0.500000
v -0.500000 3.635630 -0.500000
v -1.726656 1.543343 -1.519102
v 1.726656 1.543343 -1.519102
v 1.726656 1.543343 1.641884
v -1.726656 1.543343 1.641884
v 1.290833 2.929324 -1.165288
v 1.290833 2.929324 1.243447
v -1.290833 2.929324 1.105420
v -1.290833 2.929324 -1.112368
v 1.614729 2.239840 -1.409473
v 1.614729 2.239840 1.524707
v -1.651099 2.239840 1.524707
v -1.651099 2.239840 -1.409473
v -0.538721 3.635630 -0.008853
v -1.390798 2.929324 0.013554
v -1.778964 2.239840 0.031642
v -1.860373 1.543343 0.033408
v -0.538721 1.659764 -0.008853
v -0.538721 0.148783 -0.008853
v 0.538721 0.148783 -0.008853
v 0.538721 1.659764 -0.008853
v 1.860373 1.543343 0.033408
v 1.739777 2.239840 0.031642
v 1.390798 2.929324 0.013554
v 0.538721 3.635630 -0.008853
v -0.495357 1.129784 -0.006300
v -0.459753 1.129784 0.355808
v 0.459753 1.129784 0.355808
v 0.495357 1.129784 -0.006300
v 0.459753 1.129784 -0.355808
v -0.459753 1.129784 -0.355808
v -0.653863 0.674736 -0.500000
v -0.704500 0.674736 -0.008853
v -0.653863 0.674736 0.500000
v 0.653863 0.674736 0.500000
v 0.704500 0.674736 -0.008853
v 0.653863 0.674736 -0.500000
v 0.017083 3.635630 0.586128
v 0.018406 3.779297 -0.022646
v 0.017083 3.635630 -0.610238
v 0.044102 2.929324 -1.256660
v 0.037604 2.239840 -1.698301
v 0.058992 1.543343 -1.829458
v 0.017083 1.659764 -0.610238
v 0.015708 1.129784 -0.437732
v 0.022340 0.674736 -0.610238
v 0.017083 0.148783 -0.610238
v 0.018406 0.148783 -0.022646
v 0.017083 0.148783 0.586128
v 0.022340 0.674736 0.586128
v 0.015708 1.129784 0.413621
v 0.017083 1.659764 0.586128
v 0.058992 1.543343 1.952240
v 0.037604 2.239840 1.812053
v 0.044102 2.929324 1.310432
vt 0.704239 0.222144
vt 0.743953 0.265812
vt 0.766713 0.736248
vt 0.661243 0.264065
vt 0.391344 0.320818
vt 0.367612 0.364098
vt 0.322933 0.329046
vt 0.356674 0.288066
vt 0.596811 0.180446
vt 0.834279 0.459926
vt 0.877716 0.417174
vt 0.913268 0.458334
vt 0.754743 0.110205
vt 0.800101 0.072391
vt 0.825030 0.193072
vt 0.790188 0.151873
vt 0.779985 0.308553
vt 0.811210 0.343131
vt 0.770340 0.379917
vt 0.818539 0.729064
vt 0.675434 0.187931
vt 0.630806 0.221513
vt 0.575717 0.534743
vt 0.576129 0.841913
vt 0.126635 0.580956
vt 0.944912 0.856185
vt 0.589194 0.504308
vt 0.781176 0.478298
vt 0.568241 0.669565
vt 0.312484 0.069753
vt 0.137001 0.185264
vt 0.176313 0.518994
vt 0.348540 0.591383
vt 0.514485 0.482943
vt 0.587327 0.286320
vt 0.477259 0.138764
vt 0.342772 0.513021
vt 0.226496 0.454134
vt 0.292823 0.368608
vt 0.333003 0.394703
vt 0.501101 0.293697
vt 0.443456 0.427085
vt 0.424692 0.204510
vt 0.204894 0.239162
vt 0.317146 0.150708
vt 0.317874 0.263225
vt 0.279966 0.294978
vt 0.723439 0.068464
vt 0.759766 0.023582
vt 0.840648 0.376841
vt 0.799822 0.420881
vt 0.957976 0.518576
vt 0.071048 0.372065
vt 0.146877 0.357809
vt 0.259612 0.336475
vt 0.709827 0.148717
vt 0.742924 0.182798
vt 0.782165 0.232025
vt 0.822536 0.273541
vt 0.850312 0.309457
vt 0.881848 0.340387
vt 0.919616 0.386719
vt 0.966452 0.441374
vt 0.858599 0.230194
vt 0.844733 0.038784
vt 0.808067 0.000000
vt 0.697502 0.305855
vt 0.731974 0.344436
vt 0.771646 0.608762
vt 0.822657 0.622490
vt 0.824768 0.674994
vt 0.709922 0.670551
vt 0.716084 0.618369
vt 0.711954 0.724938
vt 0.676925 0.108324
vt 0.649684 0.157970
vt 0.873579 0.499089
vt 0.840182 0.124447
vt 0.875516 0.084720
vt 0.963261 0.349931
vt 0.929720 0.310524
vt 0.897059 0.268737
vt 1.000000 0.392785
vt 0.765530 0.882654
vt 0.657935 0.280476
vt 0.072814 0.137867
vt 0.000000 0.380866
vt 0.966101 0.684960
vt 0.356432 0.662817
vt 0.525741 0.076182
vt 0.301785 0.000000
vn -0.132700 0.062890 0.989159
vn -0.000535 0.035504 0.999369
vn 0.000065 -0.291276 0.956639
vn -0.137433 -0.288186 0.947661
vn -0.140074 0.981457 0.130850
vn -0.000800 0.991185 0.132481
vn 0.000016 0.999998 -0.002081
vn -0.144561 0.989493 0.002271
vn -0.182045 -0.287618 -0.940285
vn 0.000030 -0.292945 -0.956129
vn -0.000640 0.039393 -0.999224
vn -0.175910 0.066108 -0.982184
vn 0.000000 -1.000000 -0.000000
vn 0.000000 -1.000000 0.000000
vn 0.000000 -1.000000 -0.000000
vn 0.000000 -1.000000 -0.000000
vn 0.983067 0.159573 0.090083
vn 0.986478 0.163892 0.000259
vn 0.995912 -0.090327 -0.000259
vn 0.992371 -0.089596 0.084686
vn -0.986478 0.163892 0.000259
vn -0.983067 0.159573 0.090083
vn -0.992371 -0.089596 0.084686
vn -0.995912 -0.090327 -0.000259
vn 0.014727 -0.996227 -0.085533
vn 0.000216 -0.996372 -0.085099
vn 0.002243 -0.736807 0.676099
vn -0.142711 -0.539796 0.829611
vn -0.087698 -0.996122 -0.007142
vn -0.087932 -0.996126 0.000147
vn 0.642886 -0.765962 -0.000038
vn 0.815690 -0.574458 0.068181
vn 0.000268 -0.995585 0.093860
vn 0.017245 -0.995383 0.094417
vn -0.149807 -0.465648 -0.872198
vn 0.002333 -0.699262 -0.714862
vn 0.087932 -0.996126 0.000147
vn 0.087698 -0.996122 -0.007142
vn -0.791982 -0.606860 0.066976
vn -0.625395 -0.780309 -0.000038
vn -0.151296 0.310711 -0.938386
vn -0.005891 0.328005 -0.944658
vn 0.951177 0.308647 0.000497
vn 0.954107 0.288774 0.079308
vn -0.011741 0.370716 0.928672
vn -0.154691 0.363823 0.918533
vn -0.960491 0.265872 0.082277
vn -0.952653 0.304059 0.000504
vn 0.821676 0.565970 0.067283
vn 0.792397 0.610006 -0.000271
vn 0.639062 0.769155 -0.000679
vn 0.637388 0.768864 0.050839
vn -0.125857 0.613714 0.779432
vn -0.022134 0.626105 0.779425
vn -0.027595 0.726077 0.687060
vn -0.109051 0.711960 0.693700
vn -0.779975 0.625811 -0.000272
vn -0.803798 0.590706 0.070532
vn -0.638721 0.767446 0.055339
vn -0.640131 0.768265 -0.000720
vn -0.008155 0.578913 -0.815349
vn -0.117397 0.549371 -0.827290
vn -0.098395 0.691188 -0.715945
vn -0.011768 0.699883 -0.714160
vn -0.803247 0.591443 -0.070629
vn -0.639583 0.766763 -0.054853
vn -0.957559 0.275675 -0.084173
vn -0.772709 -0.631139 -0.067713
vn 0.088162 -0.996078 0.007439
vn -0.982777 0.159512 -0.093301
vn -0.992036 -0.090396 -0.087710
vn 0.000000 -1.000000 0.000000
vn 0.000000 -1.000000 0.000000
vn 0.982777 0.159512 -0.093301
vn 0.992036 -0.090397 -0.087710
vn -0.088162 -0.996078 0.007439
vn 0.796457 -0.600747 -0.068982
vn 0.953554 0.289784 -0.082214
vn 0.819304 0.569105 -0.069725
vn 0.639023 0.767355 -0.053068
vn -0.001033 0.990512 -0.137421
vn -0.146702 0.979845 -0.135582
vn -0.999815 0.019256 -0.000103
vn -0.995696 -0.013570 0.091677
vn -0.133005 0.150924 0.979557
vn 0.000963 0.154175 0.988043
vn 0.995696 -0.013570 0.091677
vn 0.999815 0.019256 -0.000103
vn 0.995396 -0.013049 -0.094954
vn 0.001235 0.154086 -0.988057
vn -0.172090 0.151455 -0.973369
vn -0.995396 -0.013049 -0.094954
vn -0.953197 -0.289648 -0.086711
vn -0.956801 -0.290743 -0.000022
vn -0.953442 -0.289723 0.083716
vn -0.142844 -0.020180 0.989540
vn -0.000936 -0.021822 0.999762
vn 0.953442 -0.289723 0.083715
vn 0.956801 -0.290743 -0.000022
vn 0.953197 -0.289648 -0.086711
vn -0.001186 -0.027926 -0.999609
vn -0.181629 -0.025659 -0.983032
vn 0.149803 0.979954 0.131337
vn 0.154616 0.987972 0.002420
vn 0.156908 0.978191 -0.136101
vn 0.109414 0.533599 -0.838630
vn 0.082304 0.703314 -0.706099
vn 0.155743 0.300819 -0.940878
vn 0.157870 -0.487749 -0.858591
vn -0.018232 -0.995478 0.093222
vn 0.194398 -0.287818 -0.937748
vn 0.187904 0.068117 -0.979822
vn 0.183843 0.151514 -0.971208
vn 0.193991 -0.029345 -0.980564
vn 0.000000 -1.000000 0.000000
vn 0.000000 -1.000000 0.000000
vn 0.000000 -1.000000 0.000000
vn 0.152712 -0.023101 0.988001
vn 0.142215 0.150945 0.978259
vn 0.141891 0.064453 0.987782
vn 0.146921 -0.288464 0.946151
vn -0.015598 -0.996292 -0.084606
vn 0.149846 -0.561878 0.813535
vn 0.150559 0.330160 0.931840
vn 0.094748 0.577411 0.810937
vn 0.059728 0.735646 0.674728
s 1
g pCube1
usemtl initialShadingGroup
f 38/1/1 62/2/2 63/67/3 3/4/4
s 2
f 9/5/5 49/6/6 50/7/7 25/8/8
s 3
f 5/77/9 55/10/10 56/11/11 42/12/12
s 4
f 30/13/13 59/14/14 60/78/15 1/16/16
s 5
f 39/17/17 40/18/18 32/19/19 4/68/20
s 6
f 37/21/21 38/1/22 3/4/23 29/22/24
s 7
f 3/74/25 63/3/26 64/84/27 16/24/28
s 8
f 4/20/29 32/71/30 33/88/31 15/26/32
s 9
f 55/69/33 5/73/34 13/27/35 54/28/36
s 10
f 29/72/37 3/74/38 16/24/39 28/29/40
s 9
f 54/86/36 13/91/35 24/30/41 53/31/42
s 8
f 15/89/32 33/25/31 34/32/43 22/33/44
s 7
f 16/85/28 64/23/27 65/34/45 23/35/46
s 10
f 28/90/40 16/85/39 23/35/47 27/36/48
s 8
f 18/37/49 35/38/50 36/39/51 10/40/52
s 7
f 19/41/53 66/42/54 49/6/55 9/5/56
s 10
f 26/43/57 19/41/58 9/5/59 25/8/60
s 9
f 52/44/61 20/45/62 12/46/63 51/47/64
s 8
f 22/33/44 34/32/43 35/38/50 18/37/49
s 7
f 23/35/46 65/34/45 66/42/54 19/41/53
s 10
f 27/36/48 23/35/47 19/41/58 26/43/57
s 9
f 53/31/42 24/30/41 20/45/62 52/44/61
s 10
f 20/45/65 26/43/57 25/8/60 12/46/66
f 24/30/67 27/36/48 26/43/57 20/45/65
f 13/91/68 28/90/40 27/36/48 24/30/67
f 5/73/69 29/72/37 28/29/40 13/27/68
s 6
f 42/76/70 37/21/21 29/22/24 5/9/71
s 4
f 7/48/72 58/49/73 59/14/14 30/13/13
s 5
f 32/19/19 40/18/18 41/50/74 6/51/75
s 8
f 33/88/31 32/71/30 6/70/76 14/52/77
f 34/32/43 33/25/31 14/87/77 21/53/78
f 35/38/50 34/32/43 21/53/78 17/54/79
f 36/39/51 35/38/50 17/54/79 11/55/80
s 2
f 25/8/8 50/7/7 51/47/81 12/46/82
s 6
f 44/56/83 45/57/84 38/1/22 37/21/21
s 1
f 45/57/85 61/58/86 62/2/2 38/1/1
s 5
f 46/59/87 47/60/88 40/18/18 39/17/17
f 41/50/74 40/18/18 47/60/88 48/61/89
s 3
f 42/12/12 56/11/11 57/62/90 43/63/91
s 6
f 43/75/92 44/56/83 37/21/21 42/76/70
f 7/48/93 30/13/94 44/56/83 43/75/92
f 30/13/94 1/16/95 45/57/84 44/56/83
s 1
f 1/16/96 60/15/97 61/58/86 45/57/85
s 5
f 2/64/98 31/82/99 47/60/88 46/59/87
f 48/61/89 47/60/88 31/82/99 8/81/100
s 3
f 43/63/91 57/62/90 58/80/101 7/83/102
s 2
f 49/6/6 10/40/103 36/39/104 50/7/7
f 51/47/81 50/7/7 36/39/104 11/55/105
s 9
f 17/54/106 52/44/61 51/47/64 11/55/107
f 21/53/108 53/31/42 52/44/61 17/54/106
f 14/87/109 54/86/36 53/31/42 21/53/108
f 6/70/110 55/69/33 54/28/36 14/52/109
s 3
f 56/11/11 55/10/10 6/51/111 41/50/112
f 57/62/90 56/11/11 41/50/112 48/61/113
f 58/80/101 57/62/90 48/61/113 8/81/114
s 4
f 59/14/14 58/49/73 8/66/115 31/65/116
f 60/78/15 59/14/14 31/65/116 2/79/117
s 1
f 61/58/86 60/15/97 2/64/118 46/59/119
f 62/2/2 61/58/86 46/59/119 39/17/120
f 63/67/3 62/2/2 39/17/120 4/68/121
s 7
f 64/84/27 63/3/26 4/20/122 15/26/123
f 65/34/45 64/23/27 15/89/123 22/33/124
f 66/42/54 65/34/45 22/33/124 18/37/125
f 49/6/55 66/42/54 18/37/125 10/40/126
